<svg width="32" height="32" viewBox="0 0 32 32" fill="none" xmlns="http://www.w3.org/2000/svg">
<circle cx="16" cy="16" r="16" fill="#00652E"/>
<path d="M13.627 27C14.3863 27 15.002 26.3844 15.002 25.625C15.002 24.8656 14.3863 24.25 13.627 24.25C12.8676 24.25 12.252 24.8656 12.252 25.625C12.252 26.3844 12.8676 27 13.627 27Z" fill="white"/>
<path d="M20.96 27C21.7194 27 22.335 26.3844 22.335 25.625C22.335 24.8656 21.7194 24.25 20.96 24.25C20.2006 24.25 19.585 24.8656 19.585 25.625C19.585 26.3844 20.2006 27 20.96 27Z" fill="white"/>
<path d="M26.0016 10.9583C26.0016 14.2437 23.3286 16.9167 20.0433 16.9167C16.758 16.9167 14.085 14.2437 14.085 10.9583C14.085 7.673 16.758 5 20.0433 5C23.3286 5 26.0016 7.673 26.0016 10.9583ZM23.2516 10.9583C23.2516 10.7152 23.1551 10.4821 22.9831 10.3102C22.8112 10.1382 22.5781 10.0417 22.335 10.0417H20.96V8.66667C20.96 8.42355 20.8634 8.19039 20.6915 8.01849C20.5196 7.84658 20.2864 7.75 20.0433 7.75C19.8002 7.75 19.567 7.84658 19.3951 8.01849C19.2232 8.19039 19.1266 8.42355 19.1266 8.66667V10.0417H17.7516C17.5085 10.0417 17.2754 10.1382 17.1034 10.3102C16.9315 10.4821 16.835 10.7152 16.835 10.9583C16.835 11.2014 16.9315 11.4346 17.1034 11.6065C17.2754 11.7784 17.5085 11.875 17.7516 11.875H19.1266V13.25C19.1266 13.4931 19.2232 13.7263 19.3951 13.8982C19.567 14.0701 19.8002 14.1667 20.0433 14.1667C20.2864 14.1667 20.5196 14.0701 20.6915 13.8982C20.8634 13.7263 20.96 13.4931 20.96 13.25V11.875H22.335C22.5781 11.875 22.8112 11.7784 22.9831 11.6065C23.1551 11.4346 23.2516 11.2014 23.2516 10.9583Z" fill="white"/>
<path d="M12.2514 10.9585C12.2514 10.8036 12.2651 10.6523 12.2743 10.5002H9.83046L9.48213 8.84466C9.36111 8.2817 9.05193 7.77675 8.60555 7.41301C8.15916 7.04927 7.60218 6.84843 7.02638 6.84358L4.69163 6.8335H4.68888C4.50654 6.83313 4.33153 6.90522 4.20234 7.03389C4.07315 7.16256 4.00037 7.33729 4 7.51962C3.99964 7.70196 4.07172 7.87697 4.20039 8.00616C4.32907 8.13535 4.50379 8.20813 4.68613 8.2085L7.01996 8.21858C7.55621 8.22041 8.02554 8.60358 8.13646 9.12791L8.59938 11.3288L10.2585 19.2085H9.73054C8.59296 19.2085 7.66804 20.1334 7.66804 21.271C7.66804 22.4086 8.59296 23.3335 9.73054 23.3335H23.4805C23.6629 23.3335 23.8377 23.2611 23.9667 23.1321C24.0956 23.0032 24.168 22.8283 24.168 22.646C24.168 22.4637 24.0956 22.2888 23.9667 22.1599C23.8377 22.0309 23.6629 21.9585 23.4805 21.9585H9.73054C9.54821 21.9585 9.37334 21.8861 9.24441 21.7571C9.11548 21.6282 9.04304 21.4533 9.04304 21.271C9.04304 21.0887 9.11548 20.9138 9.24441 20.7849C9.37334 20.6559 9.54821 20.5835 9.73054 20.5835H23.4805C23.6383 20.5833 23.7912 20.529 23.9137 20.4295C24.0362 20.3301 24.1208 20.1915 24.1534 20.0372L24.763 17.1432C23.4099 18.1848 21.7505 18.7497 20.043 18.7502C15.7466 18.7502 12.2514 15.2549 12.2514 10.9585Z" fill="white"/>
</svg>
