<svg width="25" height="25" viewBox="0 0 25 25" fill="none" xmlns="http://www.w3.org/2000/svg">
<path d="M24.6949 23.222L18.4772 17.0043C20.0024 15.1479 20.8353 12.8193 20.8335 10.4167C20.8335 4.67295 16.1605 0 10.4167 0C4.67295 0 0 4.67295 0 10.4167C0 16.1605 4.67295 20.8335 10.4167 20.8335C12.9147 20.8335 15.2084 19.948 17.0043 18.4772L23.222 24.6949C23.3187 24.7917 23.4335 24.8684 23.5599 24.9207C23.6863 24.9731 23.8217 25 23.9585 25C24.0953 25 24.2307 24.9731 24.3571 24.9207C24.4834 24.8684 24.5982 24.7917 24.6949 24.6949C24.7917 24.5982 24.8684 24.4834 24.9207 24.3571C24.9731 24.2307 25 24.0953 25 23.9585C25 23.8217 24.9731 23.6863 24.9207 23.5599C24.8684 23.4335 24.7917 23.3187 24.6949 23.222ZM2.08335 10.4167C2.08335 5.82191 5.82191 2.08335 10.4167 2.08335C15.0116 2.08335 18.7501 5.82191 18.7501 10.4167C18.7501 15.0116 15.0116 18.7501 10.4167 18.7501C5.82191 18.7501 2.08335 15.0116 2.08335 10.4167Z" fill="white"/>
</svg>
