<svg width="71" height="83" viewBox="0 0 71 83" fill="none" xmlns="http://www.w3.org/2000/svg">
<path d="M14.28 78.557C14.1933 78.4437 14.12 78.3204 14.06 78.187C14 78.047 13.9367 77.8804 13.87 77.687C13.8567 77.6537 13.8167 77.5537 13.75 77.387C13.69 77.2204 13.62 77.077 13.54 76.957C13.12 77.017 12.7767 77.047 12.51 77.047C12.3633 77.047 12.2 77.0437 12.02 77.037C11.8467 77.0237 11.7167 77.017 11.63 77.017C11.2967 76.9904 11.03 76.977 10.83 76.977C10.75 77.0837 10.68 77.197 10.62 77.317C10.5667 77.437 10.4967 77.617 10.41 77.857C10.29 78.2037 10.1867 78.4504 10.1 78.597C10.04 78.697 9.92333 78.747 9.75 78.747C9.60333 78.747 9.46667 78.717 9.34 78.657C9.22 78.5904 9.16 78.5004 9.16 78.387C9.21333 78.1337 9.29667 77.867 9.41 77.587C9.53 77.3004 9.7 76.9204 9.92 76.447L10.32 75.467C10.54 74.907 10.74 74.427 10.92 74.027C11.1067 73.627 11.35 73.1537 11.65 72.607C11.69 72.527 11.7567 72.4604 11.85 72.407C11.9433 72.347 12.0467 72.317 12.16 72.317C12.2867 72.317 12.3767 72.327 12.43 72.347C12.49 72.3604 12.5367 72.387 12.57 72.427C12.6033 72.4604 12.6533 72.5337 12.72 72.647C12.9467 73.0004 13.14 73.3637 13.3 73.737C13.4667 74.1104 13.6767 74.627 13.93 75.287L14.14 75.817C14.3267 76.297 14.4867 76.7004 14.62 77.027C14.76 77.347 14.9133 77.6404 15.08 77.907C15.1867 78.0804 15.24 78.2004 15.24 78.267C15.24 78.427 15.19 78.5504 15.09 78.637C14.9967 78.717 14.8733 78.757 14.72 78.757C14.5267 78.757 14.38 78.6904 14.28 78.557ZM13.25 76.137C13.1433 75.9104 12.99 75.517 12.79 74.957C12.5833 74.357 12.3767 73.8804 12.17 73.527C12.0433 73.847 11.8567 74.2604 11.61 74.767C11.4433 75.0804 11.2533 75.5337 11.04 76.127C11.4667 76.1804 11.9267 76.207 12.42 76.207C12.7733 76.207 13.05 76.1837 13.25 76.137ZM15.6486 75.337C15.5953 75.337 15.5453 75.317 15.4986 75.277C15.4586 75.2304 15.4386 75.177 15.4386 75.117C15.4386 74.9637 15.5053 74.8204 15.6386 74.687C15.6786 74.667 15.7586 74.6337 15.8786 74.587C15.9986 74.5404 16.1053 74.517 16.1986 74.517C16.4519 74.517 16.6586 74.587 16.8186 74.727C16.9786 74.8604 17.0586 75.0537 17.0586 75.307C17.0586 75.3804 17.0453 75.537 17.0186 75.777C16.9919 76.057 16.9786 76.2737 16.9786 76.427C16.9786 76.8937 17.0419 77.2704 17.1686 77.557C17.2153 77.6504 17.2886 77.7237 17.3886 77.777C17.4886 77.8304 17.5786 77.857 17.6586 77.857C17.8519 77.857 18.0086 77.8237 18.1286 77.757C18.2486 77.6904 18.3786 77.5837 18.5186 77.437C18.6586 77.2904 18.7486 77.1237 18.7886 76.937C18.8353 76.7504 18.8686 76.4937 18.8886 76.167C18.9019 75.9537 18.9153 75.797 18.9286 75.697C18.9619 75.377 18.9786 75.1037 18.9786 74.877C18.9786 74.7304 19.0186 74.6104 19.0986 74.517C19.1786 74.417 19.2886 74.367 19.4286 74.367C19.5086 74.367 19.5986 74.3937 19.6986 74.447C19.8053 74.4937 19.8753 74.5504 19.9086 74.617C19.9486 74.6837 19.9686 74.7937 19.9686 74.947C19.9686 75.027 19.9586 75.1037 19.9386 75.177C19.8919 75.3437 19.8686 75.5437 19.8686 75.777L19.8786 76.297C19.8786 76.7704 19.9119 77.1204 19.9786 77.347C20.0119 77.4537 20.0586 77.5637 20.1186 77.677C20.1786 77.7837 20.2353 77.8737 20.2886 77.947C20.4219 78.0937 20.5086 78.197 20.5486 78.257C20.5886 78.3104 20.6086 78.3637 20.6086 78.417C20.6086 78.497 20.5686 78.5737 20.4886 78.647C20.4153 78.7137 20.3353 78.747 20.2486 78.747C20.0019 78.747 19.7886 78.6637 19.6086 78.497C19.4286 78.3304 19.2953 78.1137 19.2086 77.847C18.9819 78.107 18.7719 78.317 18.5786 78.477C18.4453 78.5704 18.2819 78.6404 18.0886 78.687C17.8953 78.727 17.7019 78.747 17.5086 78.747C17.2486 78.747 16.9853 78.6404 16.7186 78.427C16.4519 78.2137 16.2719 77.967 16.1786 77.687C16.1719 77.6737 16.1519 77.6204 16.1186 77.527C16.0919 77.4337 16.0786 77.2937 16.0786 77.107C16.0786 76.8604 16.0919 76.5504 16.1186 76.177C16.1386 75.937 16.1486 75.717 16.1486 75.517C16.1486 75.457 16.1253 75.407 16.0786 75.367C16.0386 75.327 15.9919 75.307 15.9386 75.307C15.8986 75.307 15.8519 75.3137 15.7986 75.327C15.7519 75.3337 15.7019 75.337 15.6486 75.337ZM22.8459 78.307C22.8459 78.4204 22.8026 78.5204 22.7159 78.607C22.6293 78.6937 22.5226 78.737 22.3959 78.737C22.1959 78.737 22.0493 78.7004 21.9559 78.627C21.8626 78.547 21.8159 78.4037 21.8159 78.197C21.8159 77.9504 21.8093 77.627 21.7959 77.227C21.7826 76.8937 21.7759 76.6137 21.7759 76.387C21.7759 76.2804 21.7826 76.1404 21.7959 75.967C21.8093 75.807 21.8159 75.687 21.8159 75.607C21.7959 75.4804 21.7459 75.377 21.6659 75.297C21.5859 75.2104 21.4826 75.167 21.3559 75.167C21.2959 75.167 21.2459 75.1404 21.2059 75.087C21.1659 75.027 21.1459 74.967 21.1459 74.907C21.1459 74.7537 21.2059 74.637 21.3259 74.557C21.4526 74.477 21.6026 74.437 21.7759 74.437C22.1359 74.437 22.3859 74.6504 22.5259 75.077C22.6993 74.877 22.8959 74.717 23.1159 74.597C23.3426 74.4704 23.5593 74.407 23.7659 74.407C24.0126 74.407 24.2359 74.4737 24.4359 74.607C24.6426 74.7404 24.7459 74.9204 24.7459 75.147C24.7459 75.2737 24.6893 75.4037 24.5759 75.537C24.4693 75.6704 24.3593 75.737 24.2459 75.737C24.1859 75.737 24.1326 75.7237 24.0859 75.697C24.0459 75.6637 23.9959 75.617 23.9359 75.557C23.8693 75.4904 23.8126 75.4437 23.7659 75.417C23.7193 75.3837 23.6659 75.367 23.6059 75.367C23.4993 75.367 23.3993 75.3837 23.3059 75.417C23.2126 75.4504 23.1493 75.4904 23.1159 75.537C23.0093 75.7037 22.9293 75.8537 22.8759 75.987C22.8293 76.1204 22.8059 76.2637 22.8059 76.417C22.8059 76.5304 22.8026 76.6204 22.7959 76.687L22.7859 77.257C22.7859 77.3437 22.7893 77.4404 22.7959 77.547C22.8026 77.6537 22.8093 77.7337 22.8159 77.787C22.8359 77.967 22.8459 78.1404 22.8459 78.307ZM29.1405 78.747C28.9139 78.747 28.7405 78.7137 28.6205 78.647C28.5005 78.5737 28.3705 78.4404 28.2305 78.247C28.0572 78.4004 27.7972 78.5237 27.4505 78.617C27.1105 78.7104 26.8172 78.757 26.5705 78.757C26.1639 78.757 25.8339 78.647 25.5805 78.427C25.3339 78.2004 25.2105 77.8704 25.2105 77.437C25.2105 77.2504 25.2605 77.0804 25.3605 76.927C25.4672 76.767 25.6039 76.627 25.7705 76.507C25.9572 76.3804 26.1772 76.2804 26.4305 76.207C26.6905 76.1337 26.9272 76.097 27.1405 76.097C27.5005 76.097 27.8205 76.1304 28.1005 76.197V76.187C28.1005 75.827 28.0105 75.5804 27.8305 75.447C27.6572 75.307 27.3772 75.237 26.9905 75.237C26.7439 75.237 26.5305 75.347 26.3505 75.567C26.2839 75.6537 26.1439 75.697 25.9305 75.697C25.8239 75.697 25.7439 75.6537 25.6905 75.567C25.6439 75.4737 25.6205 75.3804 25.6205 75.287C25.6205 75.0937 25.7005 74.927 25.8605 74.787C26.0272 74.647 26.2272 74.5437 26.4605 74.477C26.6939 74.4037 26.9105 74.367 27.1105 74.367C27.3039 74.367 27.5339 74.407 27.8005 74.487C28.0672 74.567 28.2839 74.6737 28.4505 74.807C28.6505 74.9804 28.8039 75.1837 28.9105 75.417C29.0239 75.6437 29.0805 75.8937 29.0805 76.167C29.0805 76.2537 29.0739 76.3837 29.0605 76.557C29.0472 76.757 29.0405 76.9204 29.0405 77.047C29.0405 77.107 29.0339 77.1837 29.0205 77.277C29.0072 77.397 29.0005 77.497 29.0005 77.577C29.0005 77.6637 29.0272 77.747 29.0805 77.827C29.1339 77.907 29.2072 77.9737 29.3005 78.027C29.3872 78.0737 29.4439 78.1237 29.4705 78.177C29.4972 78.2304 29.5105 78.2904 29.5105 78.357C29.5105 78.4237 29.4672 78.507 29.3805 78.607C29.3005 78.7004 29.2205 78.747 29.1405 78.747ZM27.1405 76.837C26.8805 76.837 26.6505 76.887 26.4505 76.987C26.2505 77.087 26.1505 77.2637 26.1505 77.517C26.1505 77.6437 26.1939 77.7504 26.2805 77.837C26.3739 77.9237 26.4739 77.967 26.5805 77.967C26.8672 77.967 27.1072 77.937 27.3005 77.877C27.4939 77.817 27.7272 77.707 28.0005 77.547C28.0339 77.4404 28.0539 77.2904 28.0605 77.097C28.0605 77.0237 28.0639 76.967 28.0705 76.927C27.7105 76.867 27.4005 76.837 27.1405 76.837ZM34.1285 72.367C35.0352 72.367 35.7518 72.4937 36.2785 72.747C36.8118 72.9937 37.2152 73.2704 37.4885 73.577C37.7085 73.8304 37.8885 74.1237 38.0285 74.457C38.1685 74.7837 38.2385 75.177 38.2385 75.637C38.2385 75.977 38.1618 76.3337 38.0085 76.707C37.8552 77.0737 37.6552 77.3704 37.4085 77.597C37.1485 77.8437 36.9018 78.0437 36.6685 78.197C36.4418 78.3504 36.1318 78.477 35.7385 78.577C35.3518 78.6704 34.8585 78.717 34.2585 78.717C33.8052 78.717 33.3952 78.667 33.0285 78.567C32.6618 78.4604 32.4785 78.2837 32.4785 78.037C32.4785 77.937 32.5218 77.8604 32.6085 77.807C32.7018 77.747 32.8018 77.717 32.9085 77.717C32.9685 77.717 33.0085 77.7204 33.0285 77.727C33.0752 77.287 33.0985 76.8204 33.0985 76.327C33.0985 75.7737 33.0852 75.317 33.0585 74.957C33.0318 74.5904 32.9952 74.227 32.9485 73.867C32.9418 73.8204 32.9252 73.6904 32.8985 73.477C32.8785 73.2637 32.8685 73.047 32.8685 72.827C32.8685 72.687 32.9385 72.5704 33.0785 72.477C33.2185 72.377 33.3618 72.327 33.5085 72.327C33.5952 72.327 33.7118 72.3337 33.8585 72.347C33.9785 72.3604 34.0685 72.367 34.1285 72.367ZM33.9985 77.777C34.1585 77.8037 34.3685 77.817 34.6285 77.817C35.0685 77.817 35.4852 77.727 35.8785 77.547C36.2718 77.3604 36.5885 77.1037 36.8285 76.777C37.0685 76.4437 37.1885 76.0604 37.1885 75.627C37.1885 75.1737 37.1085 74.787 36.9485 74.467C36.7885 74.147 36.5418 73.8837 36.2085 73.677C35.9618 73.5237 35.6585 73.4137 35.2985 73.347C34.9385 73.2737 34.5052 73.237 33.9985 73.237C33.9985 73.397 34.0085 73.597 34.0285 73.837C34.0285 73.917 34.0352 74.057 34.0485 74.257C34.0885 75.0304 34.1085 75.6537 34.1085 76.127C34.1085 76.8137 34.0718 77.3637 33.9985 77.777ZM39.0496 76.447C39.0496 76.207 39.0929 75.9837 39.1796 75.777C39.2663 75.5637 39.3929 75.3437 39.5596 75.117C39.7263 74.8904 39.9563 74.7137 40.2496 74.587C40.5429 74.4537 40.8629 74.387 41.2096 74.387C41.4763 74.387 41.7329 74.4437 41.9796 74.557C42.2329 74.6637 42.4596 74.797 42.6596 74.957C42.6863 75.0037 42.7329 75.0904 42.7996 75.217C42.8663 75.337 42.9129 75.447 42.9396 75.547C42.9729 75.647 42.9896 75.7504 42.9896 75.857C42.9896 76.3037 42.8263 76.6037 42.4996 76.757C42.1729 76.9037 41.7596 76.977 41.2596 76.977C40.7596 76.977 40.3529 76.9437 40.0396 76.877C40.0529 77.0037 40.0863 77.1304 40.1396 77.257C40.1929 77.3837 40.2563 77.4804 40.3296 77.547C40.4629 77.6737 40.5929 77.757 40.7196 77.797C40.8529 77.8304 41.0296 77.847 41.2496 77.847C41.5829 77.847 41.8429 77.7837 42.0296 77.657C42.2029 77.5437 42.3363 77.487 42.4296 77.487C42.5563 77.487 42.6529 77.527 42.7196 77.607C42.7863 77.6804 42.8196 77.777 42.8196 77.897C42.8196 78.1504 42.6563 78.357 42.3296 78.517C42.0096 78.677 41.6463 78.757 41.2396 78.757C40.9196 78.757 40.6029 78.7004 40.2896 78.587C39.9763 78.4737 39.7263 78.3137 39.5396 78.107C39.4129 77.8937 39.2996 77.6337 39.1996 77.327C39.0996 77.0204 39.0496 76.727 39.0496 76.447ZM41.2496 75.207C41.1029 75.207 40.9496 75.2337 40.7896 75.287C40.6363 75.3337 40.5163 75.407 40.4296 75.507C40.3229 75.6204 40.2429 75.7237 40.1896 75.817C40.1429 75.9104 40.1129 76.027 40.0996 76.167C40.1729 76.167 40.2429 76.1704 40.3096 76.177C40.3763 76.1837 40.4396 76.1904 40.4996 76.197C40.7929 76.2237 41.0129 76.237 41.1596 76.237C41.4529 76.237 41.6763 76.1937 41.8296 76.107C41.9896 76.0204 42.0696 75.9037 42.0696 75.757C42.0696 75.617 41.9796 75.4904 41.7996 75.377C41.6263 75.2637 41.4429 75.207 41.2496 75.207ZM46.7538 76.547C46.8072 76.5804 46.9105 76.6437 47.0638 76.737C47.2238 76.8237 47.3305 76.927 47.3838 77.047C47.4372 77.167 47.4638 77.3337 47.4638 77.547C47.4638 77.787 47.3938 78.0004 47.2538 78.187C47.1138 78.367 46.9338 78.507 46.7138 78.607C46.5605 78.6737 46.3938 78.7137 46.2138 78.727C46.0405 78.7404 45.8305 78.747 45.5838 78.747C45.4505 78.747 45.2772 78.727 45.0638 78.687C44.8572 78.647 44.7138 78.6104 44.6338 78.577C44.4205 78.457 44.2405 78.317 44.0938 78.157C43.9472 77.997 43.8738 77.8337 43.8738 77.667C43.8738 77.5337 43.9172 77.427 44.0038 77.347C44.0905 77.267 44.2038 77.227 44.3438 77.227C44.4172 77.227 44.4872 77.247 44.5538 77.287C44.6272 77.3204 44.6772 77.3604 44.7038 77.407C44.7772 77.5804 44.9005 77.7104 45.0738 77.797C45.2472 77.8837 45.4238 77.927 45.6038 77.927C46.2372 77.927 46.5538 77.8137 46.5538 77.587C46.5538 77.527 46.5372 77.4804 46.5038 77.447C46.4772 77.407 46.4372 77.367 46.3838 77.327C46.2972 77.267 46.1738 77.2037 46.0138 77.137C45.8605 77.0704 45.7238 77.0204 45.6038 76.987C45.3305 76.927 45.0638 76.837 44.8038 76.717C44.5638 76.597 44.3672 76.4404 44.2138 76.247C44.0605 76.047 43.9838 75.8037 43.9838 75.517C43.9838 75.3437 44.0472 75.1737 44.1738 75.007C44.3072 74.8337 44.4605 74.7037 44.6338 74.617C44.7538 74.5704 44.9505 74.5204 45.2238 74.467C45.4972 74.4137 45.6838 74.387 45.7838 74.387C45.9372 74.387 46.1038 74.4037 46.2838 74.437C46.4638 74.4637 46.6005 74.5104 46.6938 74.577C46.8738 74.6837 47.0205 74.797 47.1338 74.917C47.2472 75.0304 47.3038 75.1604 47.3038 75.307C47.3038 75.3804 47.2872 75.4604 47.2538 75.547C47.2205 75.627 47.1805 75.677 47.1338 75.697C47.0338 75.7437 46.9172 75.767 46.7838 75.767C46.7238 75.767 46.6738 75.7504 46.6338 75.717C46.6005 75.6837 46.5538 75.6304 46.4938 75.557C46.4205 75.4437 46.3505 75.377 46.2838 75.357C46.2038 75.337 46.0872 75.3137 45.9338 75.287C45.7805 75.2537 45.6772 75.237 45.6238 75.237C45.4572 75.237 45.2972 75.2704 45.1438 75.337C44.9972 75.4037 44.9238 75.4937 44.9238 75.607C44.9238 75.7404 45.0338 75.8537 45.2538 75.947C45.3938 76.0137 45.5472 76.0704 45.7138 76.117C45.8872 76.1637 45.9938 76.1937 46.0338 76.207C46.1272 76.227 46.2472 76.2737 46.3938 76.347C46.5472 76.4204 46.6672 76.487 46.7538 76.547ZM48.917 72.287C49.1503 72.307 49.3536 72.3704 49.527 72.477C49.7003 72.577 49.787 72.7304 49.787 72.937C49.787 73.0904 49.7136 73.2137 49.567 73.307C49.427 73.3937 49.257 73.437 49.057 73.437C48.8636 73.437 48.7303 73.387 48.657 73.287C48.5836 73.187 48.547 73.0837 48.547 72.977C48.547 72.777 48.567 72.6104 48.607 72.477C48.6536 72.3437 48.757 72.2804 48.917 72.287ZM49.717 76.717V77.007C49.717 77.267 49.7236 77.5137 49.737 77.747C49.757 77.9737 49.7803 78.2037 49.807 78.437C49.8003 78.5037 49.7503 78.5737 49.657 78.647C49.5636 78.7137 49.4803 78.747 49.407 78.747C49.2803 78.747 49.1503 78.7237 49.017 78.677C48.8903 78.6237 48.8136 78.5604 48.787 78.487C48.747 78.2737 48.727 78.0837 48.727 77.917C48.727 77.3704 48.7103 76.757 48.677 76.077C48.6503 75.477 48.637 75.057 48.637 74.817C48.637 74.697 48.697 74.5937 48.817 74.507C48.937 74.4204 49.0636 74.377 49.197 74.377C49.3903 74.377 49.5236 74.4204 49.597 74.507C49.677 74.5937 49.717 74.7304 49.717 74.917V76.717ZM51.7155 78.557C51.6689 78.457 51.6455 78.3404 51.6455 78.207C51.6455 78.0804 51.7389 77.8904 51.9255 77.637C51.6055 77.5304 51.3522 77.3404 51.1655 77.067C50.9855 76.7937 50.8955 76.4737 50.8955 76.107C50.8955 75.867 50.9522 75.6504 51.0655 75.457C51.1789 75.257 51.3355 75.067 51.5355 74.887C51.8755 74.5804 52.3455 74.427 52.9455 74.427C53.1855 74.427 53.4822 74.4804 53.8355 74.587C54.2555 74.227 54.6255 74.047 54.9455 74.047C55.1455 74.047 55.2889 74.087 55.3755 74.167C55.4689 74.2404 55.5155 74.3704 55.5155 74.557C55.5155 74.6304 55.4855 74.7004 55.4255 74.767C55.3722 74.827 55.3022 74.857 55.2155 74.857L54.8555 74.847C54.6289 74.847 54.4655 74.8904 54.3655 74.977C54.4922 75.1304 54.5955 75.327 54.6755 75.567C54.7622 75.807 54.8055 76.0804 54.8055 76.387C54.8055 76.7937 54.5255 77.1737 53.9655 77.527C53.6189 77.7137 53.2155 77.8104 52.7555 77.817C52.7022 77.8704 52.6555 77.9204 52.6155 77.967C52.5822 78.007 52.5655 78.0404 52.5655 78.067C52.5655 78.1404 52.6289 78.197 52.7555 78.237C52.8822 78.277 53.0755 78.307 53.3355 78.327C53.5289 78.3404 53.7455 78.3837 53.9855 78.457C54.2322 78.5237 54.4255 78.6004 54.5655 78.687C54.7389 78.8137 54.8589 78.9504 54.9255 79.097C54.9989 79.2437 55.0355 79.427 55.0355 79.647C55.0355 79.9337 54.9022 80.1737 54.6355 80.367C54.3755 80.567 54.0689 80.7137 53.7155 80.807C53.3622 80.9004 53.0522 80.947 52.7855 80.947C52.4655 80.947 52.1922 80.907 51.9655 80.827C51.7455 80.7537 51.5355 80.6504 51.3355 80.517C51.1955 80.417 51.0855 80.2904 51.0055 80.137C50.9255 79.9837 50.8855 79.8237 50.8855 79.657C50.8855 79.5237 50.9855 79.3437 51.1855 79.117C51.3922 78.8904 51.5922 78.7337 51.7855 78.647C51.7655 78.627 51.7422 78.597 51.7155 78.557ZM52.7255 76.997C53.0389 76.997 53.3022 76.9137 53.5155 76.747C53.7289 76.5737 53.8355 76.337 53.8355 76.037C53.8355 75.797 53.7655 75.607 53.6255 75.467C53.4855 75.3204 53.2889 75.247 53.0355 75.247C52.5089 75.247 52.1655 75.3637 52.0055 75.597C51.9655 75.6504 51.9255 75.7537 51.8855 75.907C51.8455 76.0537 51.8255 76.167 51.8255 76.247C51.8255 76.3604 51.8655 76.477 51.9455 76.597C52.0322 76.7104 52.1455 76.807 52.2855 76.887C52.4255 76.9604 52.5722 76.997 52.7255 76.997ZM51.8255 79.727C51.8255 79.8404 51.9289 79.937 52.1355 80.017C52.3489 80.1037 52.5755 80.147 52.8155 80.147C53.0822 80.147 53.3555 80.097 53.6355 79.997C53.9222 79.9037 54.0655 79.777 54.0655 79.617C54.0655 79.3837 53.8589 79.2337 53.4455 79.167C52.9922 79.087 52.6355 79.0137 52.3755 78.947C52.3489 79.0404 52.2589 79.1604 52.1055 79.307C52.0055 79.407 51.9322 79.4837 51.8855 79.537C51.8455 79.597 51.8255 79.6604 51.8255 79.727ZM60.6525 77.937C60.6858 77.9504 60.7392 77.967 60.8125 77.987C60.8858 78.007 60.9392 78.027 60.9725 78.047C61.0058 78.067 61.0225 78.097 61.0225 78.137C61.0292 78.297 60.9692 78.4304 60.8425 78.537C60.7225 78.637 60.5792 78.687 60.4125 78.687C60.1525 78.687 59.9492 78.617 59.8025 78.477C59.6558 78.337 59.5492 78.1237 59.4825 77.837C59.4558 77.7237 59.4425 77.567 59.4425 77.367C59.4425 77.2537 59.4492 77.0704 59.4625 76.817C59.4758 76.5504 59.4825 76.337 59.4825 76.177C59.4825 75.9437 59.4158 75.7404 59.2825 75.567C59.1558 75.387 58.9758 75.297 58.7425 75.297C58.6025 75.297 58.4558 75.3404 58.3025 75.427C58.1492 75.507 58.0425 75.607 57.9825 75.727C57.8825 75.9204 57.8125 76.1304 57.7725 76.357C57.6992 76.757 57.6625 77.1737 57.6625 77.607C57.6625 77.8137 57.6658 77.9737 57.6725 78.087C57.6725 78.1137 57.6725 78.167 57.6725 78.247C57.6792 78.3204 57.6725 78.3904 57.6525 78.457C57.6392 78.517 57.6125 78.5737 57.5725 78.627C57.5392 78.6604 57.4858 78.687 57.4125 78.707C57.3458 78.7337 57.2825 78.747 57.2225 78.747C57.1292 78.747 57.0125 78.707 56.8725 78.627C56.7325 78.547 56.6525 78.457 56.6325 78.357L56.6225 78.187C56.6225 78.127 56.6292 78.057 56.6425 77.977C56.7225 77.5104 56.7625 77.1037 56.7625 76.757C56.7625 76.6037 56.7592 76.4837 56.7525 76.397L56.7425 75.927C56.7425 75.767 56.7025 75.6137 56.6225 75.467C56.5425 75.3137 56.4492 75.237 56.3425 75.237C56.3092 75.237 56.2625 75.2504 56.2025 75.277C56.1425 75.297 56.0925 75.307 56.0525 75.307C55.9858 75.307 55.9125 75.2737 55.8325 75.207C55.7592 75.1404 55.7225 75.0704 55.7225 74.997C55.7225 74.857 55.7692 74.7437 55.8625 74.657C55.9625 74.577 56.0592 74.5137 56.1525 74.467C56.2525 74.4204 56.3658 74.397 56.4925 74.397C56.5992 74.397 56.6858 74.407 56.7525 74.427C56.8192 74.447 56.9092 74.4904 57.0225 74.557C57.0825 74.5904 57.1525 74.6637 57.2325 74.777C57.3125 74.8904 57.3792 75.0504 57.4325 75.257C57.6058 74.937 57.8192 74.7137 58.0725 74.587C58.3325 74.4537 58.6625 74.387 59.0625 74.387C59.2158 74.387 59.3792 74.437 59.5525 74.537C59.7325 74.637 59.8858 74.7537 60.0125 74.887C60.1325 75.0337 60.2325 75.217 60.3125 75.437C60.3925 75.6504 60.4325 75.8437 60.4325 76.017C60.4325 76.117 60.4258 76.2804 60.4125 76.507C60.3925 76.687 60.3825 76.877 60.3825 77.077C60.3825 77.5437 60.4725 77.8304 60.6525 77.937Z" fill="#23231E"/>
<path d="M60.7118 35.4368C61.5114 32.9154 61.9428 30.2304 61.9428 27.4449C61.9428 12.8409 50.1019 1 35.4978 1C20.8975 1 9.05664 12.8409 9.05664 27.4449C9.05664 30.5502 9.59216 33.5327 10.5777 36.2996" stroke="#23231E" stroke-miterlimit="10" stroke-linecap="round" stroke-linejoin="round"/>
<path d="M4.16483 34.2379C3.54675 31.7433 3.21875 29.1341 3.21875 26.4487C3.21875 22.6659 3.86955 19.0351 5.0648 15.6621" stroke="#23231E" stroke-miterlimit="10" stroke-linecap="round" stroke-linejoin="round"/>
<path d="M65.6406 14.8633C67.0237 18.4594 67.782 22.3654 67.782 26.4487C67.782 29.1345 67.4539 31.7436 66.8359 34.2382" stroke="#23231E" stroke-miterlimit="10" stroke-linecap="round" stroke-linejoin="round"/>
<path d="M6.90563 55.0801C6.78625 55.1288 6.72266 55.169 6.72266 55.169L6.90563 55.0801Z" fill="#B15334" stroke="#23231E" stroke-miterlimit="10" stroke-linecap="round" stroke-linejoin="round"/>
<path d="M64.0938 55.0801L64.2767 55.169C64.2767 55.169 64.2131 55.1288 64.0938 55.0801Z" fill="#B15334" stroke="#23231E" stroke-miterlimit="10" stroke-linecap="round" stroke-linejoin="round"/>
<path d="M70 39.728C66.6419 40.0553 66.5749 45.0348 65.7159 47.2847C64.4328 50.6578 61.1602 52.0263 57.7351 51.9891L64.0944 55.0795C63.3321 54.7671 60.2045 54.094 55.6489 61.1636C54.403 63.3391 51.3424 64.4771 48.9549 64.2912C43.741 63.8821 41.0151 56.4815 35.5 56.9947C33.2575 57.203 30.2713 58.4562 26.6156 62.1602C24.9793 63.8226 22.5695 64.5887 20.2638 64.2205C15.7528 63.4953 14.5218 58.9062 11.2864 56.3588C10.2302 55.5258 8.408 54.4175 6.97995 55.046C7.64191 54.7225 12.7145 52.2532 13.2202 52.0077C11.7959 52.6474 8.73154 51.2639 7.60472 50.4272C6.437 49.5644 5.6895 48.4227 5.23952 47.0579C4.4288 44.6183 4.37302 40.0627 1 39.728C5.93123 40.2189 13.1124 40.3193 16.5375 36.0798C18.6163 33.5063 19.7915 30.5647 22.179 28.1697C24.0979 26.2433 26.3404 24.674 28.7986 23.536C29.3527 23.2794 29.9142 23.0451 30.487 22.8331H30.4684C29.8287 21.6729 29.4159 20.3527 29.2486 18.8688C29.163 18.8019 29.0775 18.7312 28.9957 18.6643C25.4628 15.7227 26.4222 12.9484 27.9879 11.0592C28.4081 10.5497 28.6982 9.97328 28.8692 9.37454C28.925 9.17 41.9932 8.92084 42.1308 9.37082C42.2981 9.97328 42.5919 10.5497 43.0121 11.0592C44.615 12.993 45.5819 15.8528 41.7514 18.8688C41.7477 18.906 41.744 18.9432 41.7366 18.9767C41.5655 20.4159 41.1564 21.7026 40.5316 22.8331C41.1453 22.8406 41.9188 23.179 42.6737 23.6029C43.4993 24.0641 44.3026 24.6256 44.8455 24.9715C46.1806 25.8194 47.4227 26.8049 48.5533 27.9057C51.9263 31.182 53.3283 35.9199 57.6831 38.1475C57.7389 38.1735 57.7947 38.2033 57.8504 38.2293C61.5768 40.0478 66.0059 40.1148 70 39.728Z" fill="#B15334" stroke="#23231E" stroke-miterlimit="10" stroke-linecap="round" stroke-linejoin="round"/>
<path d="M13.2627 51.9894C13.2627 51.9894 19.5164 49.5498 22.1493 41.4694C22.352 40.8472 22.5048 40.2102 22.6465 39.5717C22.9924 38.0127 24.2099 33.5977 27.5893 29.4229" stroke="#23231E" stroke-miterlimit="10" stroke-linecap="round" stroke-linejoin="round"/>
<path d="M57.7694 51.9894C57.7694 51.9894 51.5157 49.5498 48.8827 41.4694C48.68 40.8472 48.5272 40.2102 48.3855 39.5717C48.0397 38.0127 46.8221 33.5977 43.4424 29.4229" stroke="#23231E" stroke-miterlimit="10" stroke-linecap="round" stroke-linejoin="round"/>
<path d="M25.3633 63.166C25.3633 63.166 30.798 56.4668 32.032 44.3638" stroke="#23231E" stroke-miterlimit="10" stroke-linecap="round" stroke-linejoin="round"/>
<path d="M15.1768 60.8239C15.1768 60.8239 20.3103 60.0924 22.7781 53.7651" stroke="#23231E" stroke-miterlimit="10" stroke-linecap="round" stroke-linejoin="round"/>
<path d="M45.1417 62.6269C45.1417 62.6269 40.106 56.4673 38.8721 44.3643" stroke="#23231E" stroke-miterlimit="10" stroke-linecap="round" stroke-linejoin="round"/>
<path d="M55.7274 60.8239C55.7274 60.8239 50.5938 60.0924 48.126 53.7651" stroke="#23231E" stroke-miterlimit="10" stroke-linecap="round" stroke-linejoin="round"/>
<path d="M46.284 11.1609C39.3569 14.0672 32.178 14.1773 24.7168 11.1609V6.47217C32.5499 9.0222 39.7392 9.0222 46.284 6.47217V11.1609Z" fill="#B15334" stroke="#23231E" stroke-miterlimit="10" stroke-linecap="round" stroke-linejoin="round"/>
<path d="M42.6739 23.6027C38.1592 24.789 33.5367 24.7965 28.7988 23.5358C29.3529 23.2792 29.9145 23.0449 30.4872 22.8329H30.4686C29.829 21.6726 29.4162 20.3524 29.2488 18.8686C29.1633 18.8017 29.0777 18.731 28.9959 18.6641C33.466 19.6458 37.713 19.75 41.7368 18.9765C41.5657 20.4157 41.1566 21.7024 40.5319 22.8329C41.1455 22.8404 41.919 23.1788 42.6739 23.6027Z" fill="#B15334" stroke="#23231E" stroke-miterlimit="10" stroke-linecap="round" stroke-linejoin="round"/>
</svg>
