<svg width="81" height="65" viewBox="0 0 81 65" fill="none" xmlns="http://www.w3.org/2000/svg">
<path d="M1 11.2939H7.48048C10.3614 11.2939 12.941 13.0786 13.9564 15.7746L23.1416 40.1573H54.2106C56.1948 40.1573 57.9527 38.8766 58.5603 36.9878L63.0758 22.9581" stroke="#00652E" stroke-width="2" stroke-miterlimit="10" stroke-linecap="round"/>
<path d="M23.1416 40.1575L24.531 43.8229C25.4193 46.1665 27.6644 47.7168 30.1709 47.7168H55.068" stroke="#00652E" stroke-width="2" stroke-miterlimit="10" stroke-linecap="round"/>
<path d="M35.7201 50.2645C35.7201 51.6156 34.6245 52.7111 33.2734 52.7111C31.9223 52.7111 30.8271 51.616 30.8271 50.2645C30.8271 48.913 31.9223 47.8179 33.2734 47.8179C34.6245 47.8179 35.7201 48.9134 35.7201 50.2645Z" stroke="#00652E" stroke-width="2" stroke-miterlimit="10" stroke-linecap="round"/>
<path d="M50.4538 50.2645C50.4538 51.6156 49.3586 52.7111 48.0072 52.7111C46.6561 52.7111 45.5605 51.616 45.5605 50.2645C45.5605 48.913 46.6557 47.8179 48.0072 47.8179C49.3586 47.8182 50.4538 48.9134 50.4538 50.2645Z" stroke="#00652E" stroke-width="2" stroke-miterlimit="10" stroke-linecap="round"/>
<path d="M40.5776 27.6517C37.3158 24.3899 38.3169 18.0999 45.4005 11.0166C52.4841 3.933 66.2293 2 66.2293 2C66.2293 2 64.2963 15.7455 57.2127 22.8288C51.9002 28.1413 47.0341 30.0329 43.5567 29.2703" stroke="#94AA24" stroke-width="2" stroke-miterlimit="10" stroke-linecap="round"/>
<path d="M40.5771 27.6515L60.4278 7.80127" stroke="#94AA24" stroke-width="2" stroke-miterlimit="10" stroke-linecap="round"/>
<path d="M45.6973 22.5318V16.9578" stroke="#94AA24" stroke-width="2" stroke-miterlimit="10" stroke-linecap="round"/>
<path d="M50.6777 17.5518H55.2736" stroke="#94AA24" stroke-width="2" stroke-miterlimit="10" stroke-linecap="round"/>
<path d="M55.5527 12.6765V9.61841" stroke="#94AA24" stroke-width="2" stroke-miterlimit="10" stroke-linecap="round"/>
<path d="M35.4042 28.1469C37.6273 25.9238 36.9448 21.6371 32.1173 16.8097C27.2898 11.9822 17.9219 10.6646 17.9219 10.6646C17.9219 10.6646 19.2392 20.0325 24.067 24.86C27.6875 28.4808 31.004 29.7696 33.3737 29.2501" stroke="#94AA24" stroke-width="2" stroke-miterlimit="10" stroke-linecap="round"/>
<path d="M35.4045 28.1469L21.876 14.6187" stroke="#94AA24" stroke-width="2" stroke-miterlimit="10" stroke-linecap="round"/>
<path d="M31.915 24.6577V20.8589" stroke="#94AA24" stroke-width="2" stroke-miterlimit="10" stroke-linecap="round"/>
<path d="M28.5216 21.2639H25.3896" stroke="#94AA24" stroke-width="2" stroke-miterlimit="10" stroke-linecap="round"/>
<path d="M23.1418 40.1575H19.4844" stroke="#00652E" stroke-width="2" stroke-miterlimit="10" stroke-linecap="round"/>
<path d="M21.3135 35.3032H59.035" stroke="#00652E" stroke-width="2" stroke-miterlimit="10" stroke-linecap="round"/>
<path d="M6.05 63.1C5.31667 63.1 4.68667 62.9533 4.16 62.66C3.64 62.36 3.24 61.94 2.96 61.4C2.68 60.8533 2.54 60.21 2.54 59.47C2.54 58.9167 2.62 58.42 2.78 57.98C2.94 57.5333 3.17 57.1533 3.47 56.84C3.77 56.52 4.13667 56.2767 4.57 56.11C5.01 55.9367 5.50333 55.85 6.05 55.85C6.41667 55.85 6.77667 55.8967 7.13 55.99C7.48333 56.0833 7.79333 56.2167 8.06 56.39C8.2 56.4767 8.29333 56.5833 8.34 56.71C8.38667 56.83 8.39667 56.95 8.37 57.07C8.34333 57.1833 8.28667 57.28 8.2 57.36C8.12 57.44 8.01667 57.4867 7.89 57.5C7.77 57.5067 7.63667 57.4633 7.49 57.37C7.28333 57.2367 7.06 57.14 6.82 57.08C6.58 57.02 6.33667 56.99 6.09 56.99C5.61667 56.99 5.21667 57.0867 4.89 57.28C4.56333 57.4733 4.31667 57.7533 4.15 58.12C3.98333 58.4867 3.9 58.9367 3.9 59.47C3.9 59.9967 3.98333 60.4467 4.15 60.82C4.31667 61.1933 4.56333 61.4767 4.89 61.67C5.21667 61.8633 5.61667 61.96 6.09 61.96C6.34333 61.96 6.59333 61.93 6.84 61.87C7.08667 61.8033 7.32 61.7033 7.54 61.57C7.68667 61.4833 7.81667 61.4467 7.93 61.46C8.05 61.4667 8.15 61.5067 8.23 61.58C8.31 61.6533 8.36333 61.7467 8.39 61.86C8.41667 61.9667 8.41 62.08 8.37 62.2C8.33 62.3133 8.25 62.4133 8.13 62.5C7.86333 62.6933 7.54333 62.8433 7.17 62.95C6.80333 63.05 6.43 63.1 6.05 63.1ZM11.3253 63.1C10.8186 63.1 10.3786 62.9967 10.0053 62.79C9.63198 62.5833 9.34198 62.29 9.13531 61.91C8.92865 61.5233 8.82531 61.07 8.82531 60.55C8.82531 60.1567 8.88198 59.8067 8.99531 59.5C9.11531 59.1867 9.28531 58.92 9.50531 58.7C9.72531 58.4733 9.98865 58.3033 10.2953 58.19C10.602 58.07 10.9453 58.01 11.3253 58.01C11.832 58.01 12.272 58.1133 12.6453 58.32C13.0186 58.5267 13.3086 58.82 13.5153 59.2C13.722 59.58 13.8253 60.03 13.8253 60.55C13.8253 60.9433 13.7653 61.2967 13.6453 61.61C13.532 61.9233 13.3653 62.1933 13.1453 62.42C12.9253 62.64 12.662 62.81 12.3553 62.93C12.0486 63.0433 11.7053 63.1 11.3253 63.1ZM11.3253 62.15C11.572 62.15 11.7886 62.09 11.9753 61.97C12.162 61.85 12.3053 61.6733 12.4053 61.44C12.512 61.2 12.5653 60.9033 12.5653 60.55C12.5653 60.0167 12.452 59.62 12.2253 59.36C11.9986 59.0933 11.6986 58.96 11.3253 58.96C11.0786 58.96 10.862 59.02 10.6753 59.14C10.4886 59.2533 10.342 59.43 10.2353 59.67C10.1353 59.9033 10.0853 60.1967 10.0853 60.55C10.0853 61.0767 10.1986 61.4767 10.4253 61.75C10.652 62.0167 10.952 62.15 11.3253 62.15ZM15.497 63.08C15.297 63.08 15.1437 63.0267 15.037 62.92C14.9304 62.8067 14.877 62.6467 14.877 62.44V58.66C14.877 58.4533 14.9304 58.2967 15.037 58.19C15.1437 58.0833 15.2937 58.03 15.487 58.03C15.6804 58.03 15.8304 58.0833 15.937 58.19C16.0437 58.2967 16.097 58.4533 16.097 58.66V59.39L15.987 59.09C16.1204 58.7567 16.327 58.4933 16.607 58.3C16.887 58.1067 17.2204 58.01 17.607 58.01C18.0004 58.01 18.3237 58.1033 18.577 58.29C18.8304 58.4767 19.007 58.7633 19.107 59.15H18.967C19.1004 58.7967 19.3204 58.52 19.627 58.32C19.9337 58.1133 20.287 58.01 20.687 58.01C21.0604 58.01 21.367 58.0833 21.607 58.23C21.8537 58.3767 22.037 58.6 22.157 58.9C22.277 59.1933 22.337 59.5667 22.337 60.02V62.44C22.337 62.6467 22.2804 62.8067 22.167 62.92C22.0604 63.0267 21.907 63.08 21.707 63.08C21.507 63.08 21.3537 63.0267 21.247 62.92C21.1404 62.8067 21.087 62.6467 21.087 62.44V60.07C21.087 59.6967 21.0237 59.4233 20.897 59.25C20.777 59.0767 20.5704 58.99 20.277 58.99C19.9504 58.99 19.6937 59.1067 19.507 59.34C19.3204 59.5667 19.227 59.8833 19.227 60.29V62.44C19.227 62.6467 19.1737 62.8067 19.067 62.92C18.9604 63.0267 18.807 63.08 18.607 63.08C18.407 63.08 18.2504 63.0267 18.137 62.92C18.0304 62.8067 17.977 62.6467 17.977 62.44V60.07C17.977 59.6967 17.9137 59.4233 17.787 59.25C17.667 59.0767 17.4637 58.99 17.177 58.99C16.8504 58.99 16.5937 59.1067 16.407 59.34C16.2204 59.5667 16.127 59.8833 16.127 60.29V62.44C16.127 62.8667 15.917 63.08 15.497 63.08ZM24.2666 63.08C24.0666 63.08 23.9132 63.0267 23.8066 62.92C23.6999 62.8067 23.6466 62.6467 23.6466 62.44V58.66C23.6466 58.4533 23.6999 58.2967 23.8066 58.19C23.9132 58.0833 24.0632 58.03 24.2566 58.03C24.4499 58.03 24.5999 58.0833 24.7066 58.19C24.8132 58.2967 24.8666 58.4533 24.8666 58.66V59.39L24.7566 59.09C24.8899 58.7567 25.0966 58.4933 25.3766 58.3C25.6566 58.1067 25.9899 58.01 26.3766 58.01C26.7699 58.01 27.0932 58.1033 27.3466 58.29C27.5999 58.4767 27.7766 58.7633 27.8766 59.15H27.7366C27.8699 58.7967 28.0899 58.52 28.3966 58.32C28.7032 58.1133 29.0566 58.01 29.4566 58.01C29.8299 58.01 30.1366 58.0833 30.3766 58.23C30.6232 58.3767 30.8066 58.6 30.9266 58.9C31.0466 59.1933 31.1066 59.5667 31.1066 60.02V62.44C31.1066 62.6467 31.0499 62.8067 30.9366 62.92C30.8299 63.0267 30.6766 63.08 30.4766 63.08C30.2766 63.08 30.1232 63.0267 30.0166 62.92C29.9099 62.8067 29.8566 62.6467 29.8566 62.44V60.07C29.8566 59.6967 29.7932 59.4233 29.6666 59.25C29.5466 59.0767 29.3399 58.99 29.0466 58.99C28.7199 58.99 28.4632 59.1067 28.2766 59.34C28.0899 59.5667 27.9966 59.8833 27.9966 60.29V62.44C27.9966 62.6467 27.9432 62.8067 27.8366 62.92C27.7299 63.0267 27.5766 63.08 27.3766 63.08C27.1766 63.08 27.0199 63.0267 26.9066 62.92C26.7999 62.8067 26.7466 62.6467 26.7466 62.44V60.07C26.7466 59.6967 26.6832 59.4233 26.5566 59.25C26.4366 59.0767 26.2332 58.99 25.9466 58.99C25.6199 58.99 25.3632 59.1067 25.1766 59.34C24.9899 59.5667 24.8966 59.8833 24.8966 60.29V62.44C24.8966 62.8667 24.6866 63.08 24.2666 63.08ZM34.8061 63.1C34.2528 63.1 33.7761 62.9967 33.3761 62.79C32.9761 62.5833 32.6661 62.29 32.4461 61.91C32.2328 61.53 32.1261 61.08 32.1261 60.56C32.1261 60.0533 32.2294 59.61 32.4361 59.23C32.6494 58.85 32.9394 58.5533 33.3061 58.34C33.6794 58.12 34.1028 58.01 34.5761 58.01C34.9228 58.01 35.2328 58.0667 35.5061 58.18C35.7861 58.2933 36.0228 58.4567 36.2161 58.67C36.4161 58.8833 36.5661 59.1433 36.6661 59.45C36.7728 59.75 36.8261 60.09 36.8261 60.47C36.8261 60.59 36.7828 60.6833 36.6961 60.75C36.6161 60.81 36.4994 60.84 36.3461 60.84H33.1361V60.12H35.9461L35.7861 60.27C35.7861 59.9633 35.7394 59.7067 35.6461 59.5C35.5594 59.2933 35.4294 59.1367 35.2561 59.03C35.0894 58.9167 34.8794 58.86 34.6261 58.86C34.3461 58.86 34.1061 58.9267 33.9061 59.06C33.7128 59.1867 33.5628 59.37 33.4561 59.61C33.3561 59.8433 33.3061 60.1233 33.3061 60.45V60.52C33.3061 61.0667 33.4328 61.4767 33.6861 61.75C33.9461 62.0167 34.3261 62.15 34.8261 62.15C34.9994 62.15 35.1928 62.13 35.4061 62.09C35.6261 62.0433 35.8328 61.9667 36.0261 61.86C36.1661 61.78 36.2894 61.7467 36.3961 61.76C36.5028 61.7667 36.5861 61.8033 36.6461 61.87C36.7128 61.9367 36.7528 62.02 36.7661 62.12C36.7794 62.2133 36.7594 62.31 36.7061 62.41C36.6594 62.51 36.5761 62.5967 36.4561 62.67C36.2228 62.8167 35.9528 62.9267 35.6461 63C35.3461 63.0667 35.0661 63.1 34.8061 63.1ZM38.456 63.08C38.2493 63.08 38.0893 63.0267 37.976 62.92C37.8693 62.8067 37.816 62.6467 37.816 62.44V58.66C37.816 58.4533 37.8693 58.2967 37.976 58.19C38.0827 58.0833 38.2327 58.03 38.426 58.03C38.6193 58.03 38.7693 58.0833 38.876 58.19C38.9827 58.2967 39.036 58.4533 39.036 58.66V59.29H38.936C39.0293 58.89 39.2127 58.5867 39.486 58.38C39.7593 58.1733 40.1227 58.05 40.576 58.01C40.716 57.9967 40.826 58.0333 40.906 58.12C40.9927 58.2 41.0427 58.3267 41.056 58.5C41.0693 58.6667 41.0293 58.8033 40.936 58.91C40.8493 59.01 40.716 59.07 40.536 59.09L40.316 59.11C39.9093 59.15 39.6027 59.2767 39.396 59.49C39.1893 59.6967 39.086 59.99 39.086 60.37V62.44C39.086 62.6467 39.0327 62.8067 38.926 62.92C38.8193 63.0267 38.6627 63.08 38.456 63.08ZM43.9139 63.1C43.4006 63.1 42.9539 62.9967 42.5739 62.79C42.1939 62.5767 41.9006 62.2767 41.6939 61.89C41.4872 61.5033 41.3839 61.05 41.3839 60.53C41.3839 60.1367 41.4406 59.7867 41.5539 59.48C41.6739 59.1667 41.8439 58.9033 42.0639 58.69C42.2839 58.47 42.5506 58.3033 42.8639 58.19C43.1772 58.07 43.5272 58.01 43.9139 58.01C44.1339 58.01 44.3706 58.04 44.6239 58.1C44.8839 58.16 45.1272 58.26 45.3539 58.4C45.4606 58.4667 45.5306 58.5467 45.5639 58.64C45.5972 58.7333 45.6039 58.83 45.5839 58.93C45.5639 59.0233 45.5206 59.1067 45.4539 59.18C45.3939 59.2467 45.3172 59.29 45.2239 59.31C45.1306 59.3233 45.0272 59.3 44.9139 59.24C44.7672 59.1533 44.6172 59.09 44.4639 59.05C44.3106 59.0033 44.1639 58.98 44.0239 58.98C43.8039 58.98 43.6106 59.0167 43.4439 59.09C43.2772 59.1567 43.1339 59.2567 43.0139 59.39C42.9006 59.5167 42.8139 59.6767 42.7539 59.87C42.6939 60.0633 42.6639 60.2867 42.6639 60.54C42.6639 61.0333 42.7806 61.4233 43.0139 61.71C43.2539 61.99 43.5906 62.13 44.0239 62.13C44.1639 62.13 44.3072 62.11 44.4539 62.07C44.6072 62.03 44.7606 61.9667 44.9139 61.88C45.0272 61.82 45.1272 61.8 45.2139 61.82C45.3072 61.84 45.3839 61.8867 45.4439 61.96C45.5039 62.0267 45.5406 62.11 45.5539 62.21C45.5672 62.3033 45.5539 62.3967 45.5139 62.49C45.4806 62.5833 45.4139 62.66 45.3139 62.72C45.0939 62.8533 44.8606 62.95 44.6139 63.01C44.3672 63.07 44.1339 63.1 43.9139 63.1ZM48.683 63.1C48.1297 63.1 47.653 62.9967 47.253 62.79C46.853 62.5833 46.543 62.29 46.323 61.91C46.1097 61.53 46.003 61.08 46.003 60.56C46.003 60.0533 46.1064 59.61 46.313 59.23C46.5264 58.85 46.8164 58.5533 47.183 58.34C47.5564 58.12 47.9797 58.01 48.453 58.01C48.7997 58.01 49.1097 58.0667 49.383 58.18C49.663 58.2933 49.8997 58.4567 50.093 58.67C50.293 58.8833 50.443 59.1433 50.543 59.45C50.6497 59.75 50.703 60.09 50.703 60.47C50.703 60.59 50.6597 60.6833 50.573 60.75C50.493 60.81 50.3764 60.84 50.223 60.84H47.013V60.12H49.823L49.663 60.27C49.663 59.9633 49.6164 59.7067 49.523 59.5C49.4364 59.2933 49.3064 59.1367 49.133 59.03C48.9664 58.9167 48.7564 58.86 48.503 58.86C48.223 58.86 47.983 58.9267 47.783 59.06C47.5897 59.1867 47.4397 59.37 47.333 59.61C47.233 59.8433 47.183 60.1233 47.183 60.45V60.52C47.183 61.0667 47.3097 61.4767 47.563 61.75C47.823 62.0167 48.203 62.15 48.703 62.15C48.8764 62.15 49.0697 62.13 49.283 62.09C49.503 62.0433 49.7097 61.9667 49.903 61.86C50.043 61.78 50.1664 61.7467 50.273 61.76C50.3797 61.7667 50.463 61.8033 50.523 61.87C50.5897 61.9367 50.6297 62.02 50.643 62.12C50.6564 62.2133 50.6364 62.31 50.583 62.41C50.5364 62.51 50.453 62.5967 50.333 62.67C50.0997 62.8167 49.8297 62.9267 49.523 63C49.223 63.0667 48.943 63.1 48.683 63.1ZM56.0778 63.1C55.5245 63.1 55.1078 62.9433 54.8278 62.63C54.5478 62.31 54.4078 61.8433 54.4078 61.23V56.5C54.4078 56.2933 54.4611 56.1367 54.5678 56.03C54.6745 55.9233 54.8278 55.87 55.0278 55.87C55.2278 55.87 55.3811 55.9233 55.4878 56.03C55.6011 56.1367 55.6578 56.2933 55.6578 56.5V61.17C55.6578 61.4767 55.7211 61.7033 55.8478 61.85C55.9811 61.9967 56.1678 62.07 56.4078 62.07C56.4611 62.07 56.5111 62.07 56.5578 62.07C56.6045 62.0633 56.6511 62.0567 56.6978 62.05C56.7911 62.0367 56.8545 62.0633 56.8878 62.13C56.9211 62.19 56.9378 62.3167 56.9378 62.51C56.9378 62.6767 56.9045 62.8067 56.8378 62.9C56.7711 62.9933 56.6611 63.05 56.5078 63.07C56.4411 63.0767 56.3711 63.0833 56.2978 63.09C56.2245 63.0967 56.1511 63.1 56.0778 63.1ZM59.7823 63.1C59.2757 63.1 58.8357 62.9967 58.4623 62.79C58.089 62.5833 57.799 62.29 57.5923 61.91C57.3857 61.5233 57.2823 61.07 57.2823 60.55C57.2823 60.1567 57.339 59.8067 57.4523 59.5C57.5723 59.1867 57.7423 58.92 57.9623 58.7C58.1823 58.4733 58.4457 58.3033 58.7523 58.19C59.059 58.07 59.4023 58.01 59.7823 58.01C60.289 58.01 60.729 58.1133 61.1023 58.32C61.4757 58.5267 61.7657 58.82 61.9723 59.2C62.179 59.58 62.2823 60.03 62.2823 60.55C62.2823 60.9433 62.2223 61.2967 62.1023 61.61C61.989 61.9233 61.8223 62.1933 61.6023 62.42C61.3823 62.64 61.119 62.81 60.8123 62.93C60.5057 63.0433 60.1623 63.1 59.7823 63.1ZM59.7823 62.15C60.029 62.15 60.2457 62.09 60.4323 61.97C60.619 61.85 60.7623 61.6733 60.8623 61.44C60.969 61.2 61.0223 60.9033 61.0223 60.55C61.0223 60.0167 60.909 59.62 60.6823 59.36C60.4557 59.0933 60.1557 58.96 59.7823 58.96C59.5357 58.96 59.319 59.02 59.1323 59.14C58.9457 59.2533 58.799 59.43 58.6923 59.67C58.5923 59.9033 58.5423 60.1967 58.5423 60.55C58.5423 61.0767 58.6557 61.4767 58.8823 61.75C59.109 62.0167 59.409 62.15 59.7823 62.15ZM65.5741 63.1C65.0607 63.1 64.6141 62.9967 64.2341 62.79C63.8541 62.5767 63.5607 62.2767 63.3541 61.89C63.1474 61.5033 63.0441 61.05 63.0441 60.53C63.0441 60.1367 63.1007 59.7867 63.2141 59.48C63.3341 59.1667 63.5041 58.9033 63.7241 58.69C63.9441 58.47 64.2107 58.3033 64.5241 58.19C64.8374 58.07 65.1874 58.01 65.5741 58.01C65.7941 58.01 66.0307 58.04 66.2841 58.1C66.5441 58.16 66.7874 58.26 67.0141 58.4C67.1207 58.4667 67.1907 58.5467 67.2241 58.64C67.2574 58.7333 67.2641 58.83 67.2441 58.93C67.2241 59.0233 67.1807 59.1067 67.1141 59.18C67.0541 59.2467 66.9774 59.29 66.8841 59.31C66.7907 59.3233 66.6874 59.3 66.5741 59.24C66.4274 59.1533 66.2774 59.09 66.1241 59.05C65.9707 59.0033 65.8241 58.98 65.6841 58.98C65.4641 58.98 65.2707 59.0167 65.1041 59.09C64.9374 59.1567 64.7941 59.2567 64.6741 59.39C64.5607 59.5167 64.4741 59.6767 64.4141 59.87C64.3541 60.0633 64.3241 60.2867 64.3241 60.54C64.3241 61.0333 64.4407 61.4233 64.6741 61.71C64.9141 61.99 65.2507 62.13 65.6841 62.13C65.8241 62.13 65.9674 62.11 66.1141 62.07C66.2674 62.03 66.4207 61.9667 66.5741 61.88C66.6874 61.82 66.7874 61.8 66.8741 61.82C66.9674 61.84 67.0441 61.8867 67.1041 61.96C67.1641 62.0267 67.2007 62.11 67.2141 62.21C67.2274 62.3033 67.2141 62.3967 67.1741 62.49C67.1407 62.5833 67.0741 62.66 66.9741 62.72C66.7541 62.8533 66.5207 62.95 66.2741 63.01C66.0274 63.07 65.7941 63.1 65.5741 63.1ZM69.6116 63.1C69.2582 63.1 68.9416 63.0333 68.6616 62.9C68.3882 62.76 68.1716 62.5733 68.0116 62.34C67.8582 62.1067 67.7816 61.8433 67.7816 61.55C67.7816 61.19 67.8749 60.9067 68.0616 60.7C68.2482 60.4867 68.5516 60.3333 68.9716 60.24C69.3916 60.1467 69.9549 60.1 70.6616 60.1H71.1616V60.82H70.6716C70.2582 60.82 69.9282 60.84 69.6816 60.88C69.4349 60.92 69.2582 60.99 69.1516 61.09C69.0516 61.1833 69.0016 61.3167 69.0016 61.49C69.0016 61.71 69.0782 61.89 69.2316 62.03C69.3849 62.17 69.5982 62.24 69.8716 62.24C70.0916 62.24 70.2849 62.19 70.4516 62.09C70.6249 61.9833 70.7616 61.84 70.8616 61.66C70.9616 61.48 71.0116 61.2733 71.0116 61.04V59.89C71.0116 59.5567 70.9382 59.3167 70.7916 59.17C70.6449 59.0233 70.3982 58.95 70.0516 58.95C69.8582 58.95 69.6482 58.9733 69.4216 59.02C69.2016 59.0667 68.9682 59.1467 68.7216 59.26C68.5949 59.32 68.4816 59.3367 68.3816 59.31C68.2882 59.2833 68.2149 59.23 68.1616 59.15C68.1082 59.0633 68.0816 58.97 68.0816 58.87C68.0816 58.77 68.1082 58.6733 68.1616 58.58C68.2149 58.48 68.3049 58.4067 68.4316 58.36C68.7382 58.2333 69.0316 58.1433 69.3116 58.09C69.5982 58.0367 69.8582 58.01 70.0916 58.01C70.5716 58.01 70.9649 58.0833 71.2716 58.23C71.5849 58.3767 71.8182 58.6 71.9716 58.9C72.1249 59.1933 72.2016 59.5733 72.2016 60.04V62.44C72.2016 62.6467 72.1516 62.8067 72.0516 62.92C71.9516 63.0267 71.8082 63.08 71.6216 63.08C71.4349 63.08 71.2882 63.0267 71.1816 62.92C71.0816 62.8067 71.0316 62.6467 71.0316 62.44V61.96H71.1116C71.0649 62.1933 70.9716 62.3967 70.8316 62.57C70.6982 62.7367 70.5282 62.8667 70.3216 62.96C70.1149 63.0533 69.8782 63.1 69.6116 63.1ZM75.1403 63.1C74.587 63.1 74.1703 62.9433 73.8903 62.63C73.6103 62.31 73.4703 61.8433 73.4703 61.23V56.5C73.4703 56.2933 73.5236 56.1367 73.6303 56.03C73.737 55.9233 73.8903 55.87 74.0903 55.87C74.2903 55.87 74.4436 55.9233 74.5503 56.03C74.6636 56.1367 74.7203 56.2933 74.7203 56.5V61.17C74.7203 61.4767 74.7836 61.7033 74.9103 61.85C75.0436 61.9967 75.2303 62.07 75.4703 62.07C75.5236 62.07 75.5736 62.07 75.6203 62.07C75.667 62.0633 75.7136 62.0567 75.7603 62.05C75.8536 62.0367 75.917 62.0633 75.9503 62.13C75.9836 62.19 76.0003 62.3167 76.0003 62.51C76.0003 62.6767 75.967 62.8067 75.9003 62.9C75.8336 62.9933 75.7236 63.05 75.5703 63.07C75.5036 63.0767 75.4336 63.0833 75.3603 63.09C75.287 63.0967 75.2136 63.1 75.1403 63.1Z" fill="#00652E"/>
</svg>
